<?xml version="1.0" standalone="no"?>
<!DOCTYPE svg PUBLIC "-//W3C//DTD SVG 20010904//EN"
 "http://www.w3.org/TR/2001/REC-SVG-20010904/DTD/svg10.dtd">
<svg version="1.0" xmlns="http://www.w3.org/2000/svg"
 width="3840.000000pt" height="3840.000000pt" viewBox="0 0 3840.000000 3840.000000"
 preserveAspectRatio="xMidYMid meet">
<metadata>
Created by potrace 1.14, written by Peter Selinger 2001-2017
</metadata>
<g transform="translate(0.000000,3840.000000) scale(0.100000,-0.100000)"
fill="#000000" stroke="none">
<path d="M4030 23233 l0 -3413 2380 0 2380 0 0 3413 0 3412 -2380 0 -2380 0 0
-3412z"/>
<path d="M12555 23235 l0 -3410 2380 -3 2380 -2 -1 3407 c-1 1875 -2 3410 -3
3413 0 3 -1071 5 -2379 5 l-2377 0 0 -3410z"/>
<path d="M21089 26635 c-1 -5 -2 -1541 -3 -3413 l-1 -3402 2380 2 2380 3 0
3410 0 3410 -2377 0 c-1594 0 -2378 -3 -2379 -10z"/>
<path d="M29610 23233 l0 -3413 2380 0 2380 0 0 3413 0 3412 -2380 0 -2380 0
0 -3412z"/>
<path d="M4030 15167 l0 -3412 2380 0 2380 0 0 3412 0 3413 -2380 0 -2380 0 0
-3413z"/>
<path d="M12555 15168 l0 -3413 2380 0 2380 0 0 3410 0 3410 -2380 3 -2380 2
0 -3412z"/>
<path d="M21087 18573 c-3 -7 -2 -6800 2 -6813 0 -3 1071 -5 2379 -5 l2377 0
0 3412 0 3413 -2377 0 c-1307 0 -2379 -3 -2381 -7z"/>
<path d="M29610 15167 l0 -3412 2380 0 2380 0 0 3412 0 3413 -2380 0 -2380 0
0 -3413z"/>
</g>
</svg>
